<svg width="72" height="72" viewBox="0 0 72 72" fill="none" xmlns="http://www.w3.org/2000/svg">
<g clip-path="url(#clip0_298_279)">
<path d="M43.7971 19.4079C45.1575 18.0476 47.363 18.0476 48.7234 19.4079L52.592 23.2766C53.9524 24.6369 53.9524 26.8425 52.592 28.2028L49.4382 31.3567C49.3022 31.4927 49.0816 31.4927 48.9456 31.3567L40.6433 23.0544C40.5073 22.9184 40.5073 22.6978 40.6433 22.5618L43.7971 19.4079Z" fill="white"/>
<path d="M38.6853 24.5197C38.8214 24.3837 39.0419 24.3837 39.178 24.5197L47.4802 32.822C47.6163 32.958 47.6163 33.1786 47.4802 33.3146L36.7329 44.0619L30.6469 50.148C30.3202 50.4746 29.8772 50.6581 29.4153 50.6581L21.6902 50.6581C21.4978 50.6581 21.3419 50.5021 21.3419 50.3098L21.3419 42.5846C21.3419 42.1227 21.5254 41.6797 21.852 41.3531L27.938 35.267L38.6853 24.5197Z" fill="white"/>
</g>
<defs>
<clipPath id="clip0_298_279">
<rect width="49.7505" height="49.7505" fill="white" transform="translate(36 0.821045) rotate(45)"/>
</clipPath>
</defs>
</svg>
