<svg width="60" height="60" viewBox="0 0 60 60" fill="none" xmlns="http://www.w3.org/2000/svg">
<g clip-path="url(#clip0_279_405)">
<path d="M20.0002 60.0002C25.5202 60.0002 30.0003 55.5201 30.0003 50.0001V40H20.0002C14.4801 40 10 44.4801 10 50.0001C10 55.5201 14.4801 60.0002 20.0002 60.0002Z" fill="#0ACF83"/>
<path d="M10 30.0001C10 24.4801 14.4801 20 20.0002 20H30.0003V39.9999H20.0002C14.4801 40.0002 10 35.5201 10 30.0001Z" fill="#A259FF"/>
<path d="M10 10.0001C10 4.48008 14.4801 0 20.0002 0H30.0003V19.9999H20.0002C14.4801 19.9999 10 15.5201 10 10.0001Z" fill="#F24E1E"/>
<path d="M29.9998 0H39.9999C45.52 0 50.0001 4.48008 50.0001 10.0001C50.0001 15.5201 45.52 19.9999 39.9999 19.9999H29.9998V0Z" fill="#FF7262"/>
<path d="M50.0001 30.0001C50.0001 35.5201 45.52 40.0002 39.9999 40.0002C34.4799 40.0002 29.9998 35.5201 29.9998 30.0001C29.9998 24.4801 34.4799 20 39.9999 20C45.52 20 50.0001 24.4801 50.0001 30.0001Z" fill="#1ABCFE"/>
</g>
<defs>
<clipPath id="clip0_279_405">
<rect width="60" height="60" fill="white"/>
</clipPath>
</defs>
</svg>
