<svg width="63" height="63" viewBox="0 0 63 63" fill="none" xmlns="http://www.w3.org/2000/svg">
<path d="M31.28 5.21338C16.9069 5.21338 5.21338 16.9069 5.21338 31.28V42.0795C5.21338 44.7487 7.55156 46.92 10.4267 46.92H13.0334C13.7247 46.92 14.3877 46.6454 14.8766 46.1566C15.3654 45.6677 15.64 45.0047 15.64 44.3134V30.9073C15.64 30.216 15.3654 29.5529 14.8766 29.0641C14.3877 28.5753 13.7247 28.3006 13.0334 28.3006H10.6665C12.1158 18.2128 20.796 10.4267 31.28 10.4267C41.7641 10.4267 50.4443 18.2128 51.8936 28.3006H49.5267C48.8354 28.3006 48.1724 28.5753 47.6835 29.0641C47.1947 29.5529 46.92 30.216 46.92 30.9073V46.92C46.92 49.7952 44.5819 52.1334 41.7067 52.1334H36.4934V49.5267H26.0667V57.3467H41.7067C47.457 57.3467 52.1334 52.6704 52.1334 46.92C55.0085 46.92 57.3467 44.7487 57.3467 42.0795V31.28C57.3467 16.9069 45.6532 5.21338 31.28 5.21338Z" fill="#FFB81C"/>
</svg>
