<svg width="64" height="63" viewBox="0 0 64 63" fill="none" xmlns="http://www.w3.org/2000/svg">
<path d="M41.8596 31.3594C39.3475 31.3594 36.9184 30.2377 35.0171 28.202C33.1684 26.2165 32.0394 23.5687 31.8403 20.7486C31.6276 17.7404 32.5453 14.974 34.4233 12.9579C36.3013 10.9418 38.9271 9.85437 41.8596 9.85437C44.7714 9.85437 47.4045 10.9614 49.2764 12.9726C51.1667 15.0034 52.0867 17.7648 51.8741 20.7474C51.6701 23.5711 50.5423 26.2177 48.6972 28.2008C46.8009 30.2377 44.373 31.3594 41.8596 31.3594ZM57.9676 52.8644H25.7529C25.2349 52.8671 24.7233 52.751 24.2572 52.525C23.7912 52.299 23.3832 51.9691 23.0647 51.5606C22.7269 51.1178 22.4936 50.6044 22.3823 50.0587C22.271 49.513 22.2846 48.9491 22.422 48.4094C23.4509 44.2783 25.9997 40.8521 29.7924 38.5024C33.1587 36.4179 37.4438 35.2694 41.8596 35.2694C46.3622 35.2694 50.5349 36.3691 53.9208 38.4524C57.722 40.7898 60.2745 44.2355 61.2984 48.4167C61.4342 48.9569 61.4463 49.5207 61.3338 50.0661C61.2212 50.6115 60.9869 51.1245 60.6484 51.5667C60.3302 51.9733 59.9232 52.3016 59.4585 52.5265C58.9939 52.7514 58.4839 52.867 57.9676 52.8644ZM18.7662 31.8481C14.4664 31.8481 10.6859 27.8501 10.3353 22.937C10.1617 20.4199 10.9462 18.0923 12.5346 16.3853C14.106 14.6954 16.3224 13.7644 18.7662 13.7644C21.2099 13.7644 23.4093 14.7003 24.9892 16.4C26.5899 18.1204 27.3719 20.4431 27.1886 22.9394C26.8379 27.8514 23.0586 31.8481 18.7662 31.8481ZM26.789 35.6909C24.6397 34.6401 21.8502 34.1147 18.7674 34.1147C15.1678 34.1147 11.672 35.0531 8.92276 36.7564C5.80576 38.6906 3.70902 41.507 2.86226 44.9075C2.73835 45.3966 2.72663 45.9074 2.82798 46.4017C2.92933 46.896 3.14113 47.3609 3.44754 47.7618C3.73828 48.1351 4.11076 48.4366 4.53631 48.6434C4.96187 48.8501 5.42918 48.9565 5.90229 48.9544H19.4651C19.694 48.9543 19.9157 48.874 20.0914 48.7273C20.2671 48.5806 20.3858 48.3768 20.4267 48.1516C20.4402 48.0746 20.4573 47.9976 20.4768 47.9219C21.513 43.7602 23.9408 40.2436 27.5283 37.6801C27.6602 37.585 27.7663 37.4585 27.837 37.312C27.9077 37.1655 27.9407 37.0037 27.9331 36.8412C27.9254 36.6788 27.8774 36.5208 27.7932 36.3816C27.7091 36.2423 27.5916 36.1263 27.4513 36.044C27.2594 35.9316 27.0395 35.8131 26.789 35.6909Z" fill="#FFB81C"/>
</svg>
