<svg width="64" height="63" viewBox="0 0 64 63" fill="none" xmlns="http://www.w3.org/2000/svg">
<path d="M28.9501 18.7533C34.7838 12.1767 43.8602 9.34326 52.2015 9.34326C52.72 9.34326 53.2173 9.54923 53.5839 9.91587C53.9506 10.2825 54.1566 10.7798 54.1566 11.2983C54.1566 19.6396 51.3231 28.716 44.7465 34.5497C44.5875 37.1981 43.769 39.8491 42.5986 42.1768C41.2953 44.7679 39.4836 47.0956 37.4556 48.6362C35.472 50.1428 32.907 51.1464 30.3733 50.2028C27.9752 49.3087 26.3591 46.9444 25.4207 43.587L19.9128 38.0765C16.5554 37.1408 14.1911 35.5246 13.297 33.1265C12.3534 30.5928 13.357 28.0278 14.8637 26.0442C16.4042 24.0162 18.7319 22.2046 21.323 20.9012C23.6507 19.7308 26.3017 18.9123 28.9475 18.7559M25.4832 23.3984C24.6594 23.6736 23.8562 24.0072 23.0799 24.3968C20.9007 25.4942 19.0838 26.9565 17.9786 28.411C16.8395 29.9125 16.6935 31.0438 16.962 31.7632C17.1784 32.3523 17.8796 33.2151 19.8137 33.9424C20.2542 32.9545 20.8877 31.5886 21.6827 30.0219C22.6941 28.0331 23.9818 25.6923 25.4832 23.3984ZM29.56 43.6913C30.2847 45.6255 31.1501 46.324 31.7392 46.5456C32.456 46.8115 33.5899 46.6655 35.0914 45.529C36.5459 44.4212 38.0082 42.6043 39.1057 40.4252C39.5001 39.6414 39.8329 38.8403 40.104 38.0218C37.9674 39.4075 35.7572 40.6762 33.4831 41.8223C31.9139 42.6174 30.548 43.2508 29.56 43.6913ZM13.8444 41.9396C14.8952 41.0619 16.2315 40.6004 17.6 40.6427C18.9684 40.685 20.2737 41.2281 21.2682 42.169L21.2917 42.1951C23.3744 44.2544 23.3405 47.5492 21.5602 49.6632C20.7912 50.5807 19.7407 51.2428 18.7528 51.7277C17.744 52.2229 16.657 52.5957 15.69 52.8746C14.5274 53.2053 13.3451 53.4621 12.1501 53.6436L12.0876 53.6514L12.0667 53.654H12.0589C11.7611 53.6939 11.4582 53.6646 11.1736 53.5684C10.889 53.4722 10.6304 53.3118 10.4179 53.0995C10.2054 52.8872 10.0446 52.6288 9.94811 52.3443C9.85161 52.0599 9.82196 51.757 9.86146 51.4592V51.4514L9.86407 51.4305L9.8745 51.3679C9.9223 51.0284 9.97967 50.6903 10.0465 50.354C10.169 49.6997 10.3619 48.8004 10.6409 47.8229C10.9333 46.7683 11.3162 45.741 11.7852 44.7522C12.2674 43.7617 12.9295 42.7138 13.8444 41.9396ZM41.6107 21.6467C41.2441 21.2806 40.7472 21.075 40.2291 21.075C39.7111 21.075 39.2142 21.2806 38.8476 21.6467L37.0047 23.4896C36.6594 23.8602 36.4714 24.3504 36.4803 24.8569C36.4892 25.3634 36.6944 25.8466 37.0526 26.2048C37.4108 26.563 37.894 26.7682 38.4005 26.7771C38.907 26.786 39.3971 26.598 39.7677 26.2527L41.6107 24.4098C41.9768 24.0432 42.1824 23.5463 42.1824 23.0283C42.1824 22.5102 41.9768 22.0133 41.6107 21.6467Z" fill="#FFB81C"/>
</svg>
