<svg width="287" height="420" viewBox="0 0 287 420" fill="none" xmlns="http://www.w3.org/2000/svg">
<rect width="287" height="420" rx="10" fill="white"/>
<g clip-path="url(#clip0_407_1569)">
<path d="M70.6064 243.155L111.043 243.348C123.359 243.407 130.018 231.642 121.453 224.391L81.2831 189.79C72.5151 182.211 56.8772 187.051 56.7973 197.374L56.5309 231.781C56.4827 238.008 62.8065 243.117 70.6064 243.155Z" fill="#8763E8"/>
<path d="M57.7043 80.2232L57.4379 114.631C57.3593 124.79 72.9198 129.943 81.8045 122.449L122.507 88.2343C130.979 81.0653 124.707 69.2379 112.391 69.179L71.9549 68.9855C64.155 68.9482 57.7525 73.997 57.7043 80.2232Z" fill="#8763E8"/>
<path d="M155.909 148.692L227.396 88.736C235.868 81.567 229.596 69.7396 217.28 69.6806L176.433 69.4852C172.533 69.4666 168.828 70.7597 166.142 73.0408L76.267 148.311C71.1012 152.71 71.0492 159.428 76.1465 163.876L164.849 240.001C167.5 242.307 171.185 243.636 175.085 243.654L215.932 243.85C228.247 243.909 234.907 232.143 226.342 224.893L155.788 164.257C150.691 159.809 150.743 153.091 155.909 148.692Z" fill="#8763E8"/>
</g>
<rect y="276" width="287" height="144" rx="10" fill="#8763E8"/>
<path d="M22.3244 354V334.805H24.6487V344.328H24.8737L33.4963 334.805H36.533L28.4727 343.465L36.533 354H33.7213L27.0481 345.077L24.6487 347.777V354H22.3244ZM40.1437 354V339.604H42.3556V354H40.1437ZM41.2684 337.205C40.8373 337.205 40.4655 337.058 40.1531 336.764C39.8469 336.47 39.6939 336.117 39.6939 335.705C39.6939 335.293 39.8469 334.94 40.1531 334.646C40.4655 334.352 40.8373 334.205 41.2684 334.205C41.6996 334.205 42.0682 334.352 42.3744 334.646C42.6868 334.94 42.843 335.293 42.843 335.705C42.843 336.117 42.6868 336.47 42.3744 336.764C42.0682 337.058 41.6996 337.205 41.2684 337.205ZM56.6041 342.828L54.6171 343.39C54.4922 343.059 54.3078 342.737 54.0642 342.425C53.8267 342.106 53.5018 341.844 53.0894 341.638C52.677 341.432 52.1491 341.328 51.5055 341.328C50.6245 341.328 49.8903 341.532 49.303 341.938C48.7219 342.338 48.4313 342.847 48.4313 343.465C48.4313 344.015 48.6313 344.449 49.0312 344.768C49.431 345.087 50.0559 345.352 50.9056 345.565L53.0426 346.09C54.3297 346.402 55.2888 346.88 55.9199 347.524C56.551 348.161 56.8665 348.983 56.8665 349.989C56.8665 350.813 56.6291 351.551 56.1542 352.2C55.6856 352.85 55.0295 353.363 54.186 353.738C53.3425 354.112 52.3615 354.3 51.2431 354.3C49.7747 354.3 48.5594 353.981 47.5972 353.344C46.6349 352.707 46.0257 351.776 45.7695 350.551L47.869 350.026C48.0689 350.801 48.4469 351.382 49.003 351.769C49.5654 352.157 50.2996 352.35 51.2056 352.35C52.2365 352.35 53.0551 352.132 53.6611 351.694C54.2735 351.251 54.5796 350.72 54.5796 350.101C54.5796 349.601 54.4047 349.183 54.0548 348.845C53.7049 348.501 53.1675 348.245 52.4427 348.077L50.0434 347.514C48.725 347.202 47.7565 346.718 47.1379 346.062C46.5256 345.399 46.2194 344.571 46.2194 343.578C46.2194 342.766 46.4475 342.047 46.9036 341.422C47.366 340.797 47.9939 340.307 48.7875 339.951C49.5873 339.595 50.4933 339.416 51.5055 339.416C52.9301 339.416 54.0485 339.729 54.8608 340.354C55.6793 340.979 56.2604 341.803 56.6041 342.828ZM60.496 354V334.805H62.8204V344.328H63.0453L71.668 334.805H74.7046L66.6443 343.465L74.7046 354H71.8929L65.2197 345.077L62.8204 347.777V354H60.496ZM81.6496 354.337C80.7374 354.337 79.9095 354.166 79.1659 353.822C78.4224 353.472 77.8319 352.969 77.3945 352.313C76.9571 351.651 76.7385 350.851 76.7385 349.914C76.7385 349.089 76.9009 348.42 77.2258 347.908C77.5507 347.389 77.985 346.983 78.5286 346.689C79.0722 346.396 79.672 346.177 80.3281 346.033C80.9904 345.883 81.6559 345.765 82.3244 345.677C83.1992 345.565 83.9084 345.48 84.452 345.424C85.0018 345.362 85.4017 345.259 85.6517 345.115C85.9078 344.971 86.0359 344.721 86.0359 344.365V344.29C86.0359 343.365 85.7829 342.647 85.2768 342.134C84.7769 341.622 84.0177 341.366 82.9992 341.366C81.9433 341.366 81.1154 341.597 80.5155 342.06C79.9157 342.522 79.494 343.015 79.2503 343.54L77.1508 342.791C77.5257 341.916 78.0256 341.235 78.6504 340.747C79.2815 340.254 79.9688 339.91 80.7124 339.716C81.4622 339.516 82.1995 339.416 82.9243 339.416C83.3866 339.416 83.9177 339.473 84.5176 339.585C85.1237 339.691 85.7079 339.913 86.2702 340.251C86.8388 340.588 87.3106 341.097 87.6855 341.778C88.0604 342.459 88.2478 343.372 88.2478 344.515V354H86.0359V352.051H85.9235C85.7735 352.363 85.5236 352.697 85.1737 353.053C84.8238 353.41 84.3583 353.713 83.7772 353.963C83.1961 354.212 82.4869 354.337 81.6496 354.337ZM81.987 352.35C82.8618 352.35 83.5991 352.179 84.1989 351.835C84.805 351.491 85.2611 351.048 85.5673 350.504C85.8797 349.96 86.0359 349.389 86.0359 348.789V346.764C85.9422 346.877 85.736 346.98 85.4173 347.074C85.1049 347.161 84.7425 347.239 84.3301 347.308C83.924 347.371 83.5272 347.427 83.1398 347.477C82.7587 347.521 82.4494 347.558 82.212 347.589C81.6371 347.664 81.0998 347.786 80.5999 347.955C80.1063 348.117 79.7064 348.364 79.4002 348.695C79.1003 349.02 78.9504 349.464 78.9504 350.026C78.9504 350.795 79.2346 351.376 79.8032 351.769C80.3781 352.157 81.106 352.35 81.987 352.35ZM102.482 342.828L100.495 343.39C100.37 343.059 100.186 342.737 99.9423 342.425C99.7049 342.106 99.3799 341.844 98.9676 341.638C98.5552 341.432 98.0272 341.328 97.3836 341.328C96.5026 341.328 95.7684 341.532 95.1811 341.938C94.6 342.338 94.3094 342.847 94.3094 343.465C94.3094 344.015 94.5094 344.449 94.9093 344.768C95.3092 345.087 95.934 345.352 96.7838 345.565L98.9207 346.09C100.208 346.402 101.167 346.88 101.798 347.524C102.429 348.161 102.745 348.983 102.745 349.989C102.745 350.813 102.507 351.551 102.032 352.2C101.564 352.85 100.908 353.363 100.064 353.738C99.2206 354.112 98.2396 354.3 97.1212 354.3C95.6528 354.3 94.4375 353.981 93.4753 353.344C92.5131 352.707 91.9039 351.776 91.6477 350.551L93.7471 350.026C93.947 350.801 94.3251 351.382 94.8812 351.769C95.4435 352.157 96.1777 352.35 97.0837 352.35C98.1147 352.35 98.9332 352.132 99.5393 351.694C100.152 351.251 100.458 350.72 100.458 350.101C100.458 349.601 100.283 349.183 99.9329 348.845C99.583 348.501 99.0457 348.245 98.3209 348.077L95.9215 347.514C94.6031 347.202 93.6346 346.718 93.0161 346.062C92.4037 345.399 92.0976 344.571 92.0976 343.578C92.0976 342.766 92.3256 342.047 92.7817 341.422C93.2441 340.797 93.8721 340.307 94.6656 339.951C95.4654 339.595 96.3714 339.416 97.3836 339.416C98.8082 339.416 99.9267 339.729 100.739 340.354C101.557 340.979 102.139 341.803 102.482 342.828Z" fill="white"/>
<path d="M24.0625 380H21.1449V370.545H24.1918C25.1089 370.545 25.8937 370.735 26.5462 371.113C27.1986 371.489 27.6987 372.029 28.0465 372.734C28.3943 373.435 28.5682 374.276 28.5682 375.254C28.5682 376.239 28.3928 377.087 28.0419 377.798C27.6911 378.506 27.1802 379.051 26.5092 379.432C25.8383 379.811 25.0227 380 24.0625 380ZM22.2898 378.984H23.9886C24.7704 378.984 25.4182 378.834 25.9322 378.532C26.4461 378.23 26.8293 377.801 27.0817 377.244C27.334 376.687 27.4602 376.024 27.4602 375.254C27.4602 374.491 27.3356 373.834 27.0863 373.283C26.837 372.729 26.4646 372.304 25.9691 372.009C25.4736 371.71 24.8565 371.561 24.1179 371.561H22.2898V378.984ZM33.3139 380.148C32.6307 380.148 32.0413 379.997 31.5458 379.695C31.0534 379.391 30.6733 378.966 30.4055 378.421C30.1409 377.873 30.0085 377.236 30.0085 376.51C30.0085 375.784 30.1409 375.143 30.4055 374.589C30.6733 374.032 31.0457 373.598 31.5227 373.288C32.0028 372.974 32.563 372.817 33.2031 372.817C33.5724 372.817 33.9371 372.878 34.2972 373.001C34.6573 373.125 34.9851 373.325 35.2805 373.602C35.576 373.875 35.8114 374.239 35.9869 374.691C36.1623 375.143 36.25 375.701 36.25 376.362V376.824H30.7841V375.882H35.142C35.142 375.482 35.062 375.125 34.902 374.811C34.745 374.497 34.5204 374.249 34.228 374.068C33.9387 373.886 33.5971 373.795 33.2031 373.795C32.7692 373.795 32.3937 373.903 32.0767 374.119C31.7628 374.331 31.5212 374.608 31.3519 374.95C31.1826 375.291 31.098 375.657 31.098 376.048V376.676C31.098 377.212 31.1903 377.666 31.375 378.038C31.5627 378.407 31.8228 378.689 32.1552 378.883C32.4876 379.074 32.8738 379.169 33.3139 379.169C33.6001 379.169 33.8587 379.129 34.0895 379.049C34.3234 378.966 34.525 378.843 34.6942 378.68C34.8635 378.513 34.9943 378.307 35.0866 378.061L36.1392 378.357C36.0284 378.714 35.8422 379.027 35.5806 379.298C35.319 379.566 34.9959 379.775 34.6112 379.926C34.2264 380.074 33.794 380.148 33.3139 380.148ZM43.4898 372.909L40.8676 380H39.7597L37.1375 372.909H38.3193L40.2767 378.56H40.3506L42.308 372.909H43.4898ZM48.9903 375.439V376.455H44.854V375.439H48.9903ZM49.5732 371.561V370.545H56.6641V371.561H53.6911V380H52.5462V371.561H49.5732ZM60.228 380.148C59.5447 380.148 58.9554 379.997 58.4599 379.695C57.9674 379.391 57.5874 378.966 57.3196 378.421C57.0549 377.873 56.9226 377.236 56.9226 376.51C56.9226 375.784 57.0549 375.143 57.3196 374.589C57.5874 374.032 57.9598 373.598 58.4368 373.288C58.9169 372.974 59.477 372.817 60.1172 372.817C60.4865 372.817 60.8512 372.878 61.2113 373.001C61.5714 373.125 61.8991 373.325 62.1946 373.602C62.4901 373.875 62.7255 374.239 62.9009 374.691C63.0763 375.143 63.1641 375.701 63.1641 376.362V376.824H57.6982V375.882H62.0561C62.0561 375.482 61.9761 375.125 61.8161 374.811C61.6591 374.497 61.4344 374.249 61.142 374.068C60.8527 373.886 60.5111 373.795 60.1172 373.795C59.6832 373.795 59.3078 373.903 58.9908 374.119C58.6768 374.331 58.4353 374.608 58.266 374.95C58.0967 375.291 58.0121 375.657 58.0121 376.048V376.676C58.0121 377.212 58.1044 377.666 58.2891 378.038C58.4768 378.407 58.7369 378.689 59.0692 378.883C59.4016 379.074 59.7879 379.169 60.228 379.169C60.5142 379.169 60.7727 379.129 61.0036 379.049C61.2375 378.966 61.439 378.843 61.6083 378.68C61.7776 378.513 61.9084 378.307 62.0007 378.061L63.0533 378.357C62.9425 378.714 62.7563 379.027 62.4947 379.298C62.2331 379.566 61.9099 379.775 61.5252 379.926C61.1405 380.074 60.7081 380.148 60.228 380.148ZM67.7021 380.148C67.0373 380.148 66.4648 379.991 65.9847 379.677C65.5046 379.363 65.1353 378.931 64.8768 378.38C64.6183 377.829 64.489 377.199 64.489 376.491C64.489 375.771 64.6213 375.136 64.886 374.585C65.1538 374.031 65.5262 373.598 66.0032 373.288C66.4833 372.974 67.0434 372.817 67.6836 372.817C68.1822 372.817 68.6315 372.909 69.0316 373.094C69.4317 373.278 69.7595 373.537 70.0149 373.869C70.2704 374.202 70.4289 374.589 70.4904 375.033H69.4009C69.3178 374.71 69.1332 374.423 68.8469 374.174C68.5638 373.922 68.1822 373.795 67.7021 373.795C67.2773 373.795 66.9049 373.906 66.5849 374.128C66.2679 374.346 66.0201 374.656 65.8416 375.056C65.6662 375.453 65.5785 375.919 65.5785 376.455C65.5785 377.002 65.6647 377.479 65.837 377.886C66.0124 378.292 66.2586 378.607 66.5756 378.832C66.8957 379.057 67.2712 379.169 67.7021 379.169C67.9852 379.169 68.2422 379.12 68.473 379.021C68.7038 378.923 68.8993 378.781 69.0593 378.597C69.2193 378.412 69.3332 378.19 69.4009 377.932H70.4904C70.4289 378.35 70.2765 378.727 70.0334 379.063C69.7933 379.395 69.4748 379.66 69.0778 379.857C68.6838 380.051 68.2253 380.148 67.7021 380.148ZM73.1726 375.734V380H72.0831V370.545H73.1726V374.017H73.2649C73.4311 373.651 73.6804 373.36 74.0128 373.145C74.3482 372.926 74.7945 372.817 75.3516 372.817C75.8348 372.817 76.2579 372.914 76.6211 373.108C76.9843 373.298 77.2659 373.592 77.4659 373.989C77.669 374.383 77.7706 374.885 77.7706 375.494V380H76.6811V375.568C76.6811 375.005 76.5349 374.569 76.2425 374.262C75.9532 373.951 75.5516 373.795 75.0376 373.795C74.6806 373.795 74.3606 373.871 74.0774 374.022C73.7973 374.172 73.5758 374.393 73.4126 374.682C73.2526 374.971 73.1726 375.322 73.1726 375.734Z" fill="white"/>
<defs>
<clipPath id="clip0_407_1569">
<rect width="174.174" height="173.654" fill="white" transform="matrix(0.00774185 -0.99997 0.999989 0.00478443 56.4434 243.087)"/>
</clipPath>
</defs>
</svg>
