<svg width="287" height="420" viewBox="0 0 287 420" fill="none" xmlns="http://www.w3.org/2000/svg">
<rect width="287" height="420" rx="10" fill="white"/>
<path fill-rule="evenodd" clip-rule="evenodd" d="M230.681 72.9875C231.797 76.529 230.469 80.5232 218.784 108.756C211.549 126.234 204.085 144.866 202.197 150.156C198.79 159.703 198.78 159.833 200.684 167.045C201.74 171.041 208.128 188.299 214.879 205.395C230.903 245.969 231.166 244.511 207.946 243.757C193.229 243.278 190.894 242.81 188.668 239.893C185.699 236.001 160.076 171.198 158.962 164.761C158.52 162.206 158.931 157.852 159.945 154.342C163.276 142.814 190.075 78.229 193.437 73.6288C196.796 69.032 196.934 69 213.122 69C229.141 69 229.447 69.069 230.681 72.9875ZM175.983 73.0161C177.115 76.6081 175.569 81.1292 161.409 115.638C143.82 158.501 143.377 160.513 148.364 174.677C149.902 179.043 155.925 194.623 161.75 209.295C167.575 223.97 172.34 236.942 172.34 238.125C172.34 243.37 169.06 244.315 152.735 243.762C138.831 243.291 136.147 242.759 134.089 240.061C132.767 238.327 118.098 202.196 118.098 202.196C118.098 202.196 104.511 166.092 104.511 161.265C104.511 156.327 107.705 147.158 120.055 116.653C128.605 95.5358 137.017 76.1755 138.749 73.6288C141.888 69.0135 141.945 69 158.308 69C174.475 69 174.737 69.0589 175.983 73.0161Z" fill="black"/>
<path fill-rule="evenodd" clip-rule="evenodd" d="M87.0545 70.087C82.8886 71.4436 83.7546 72.0681 67.8093 112.807C51.3541 154.848 51.0654 152.82 73.4965 152.82C89.0659 152.82 88.6271 152.663 91.9758 148.588C95.0778 144.813 123.596 74.4044 123.596 70.5195C123.596 68.774 92.2284 68.4038 87.0545 70.087Z" fill="black"/>
<rect y="276" width="287" height="144" rx="10" fill="#00BED8"/>
<path d="M22.3244 354V334.805H24.6487V344.328H24.8737L33.4963 334.805H36.533L28.4727 343.465L36.533 354H33.7213L27.0481 345.077L24.6487 347.777V354H22.3244ZM44.0333 354.3C42.7337 354.3 41.5933 353.991 40.6124 353.372C39.6376 352.753 38.8753 351.888 38.3255 350.776C37.7819 349.664 37.5101 348.364 37.5101 346.877C37.5101 345.377 37.7819 344.068 38.3255 342.95C38.8753 341.831 39.6376 340.963 40.6124 340.344C41.5933 339.726 42.7337 339.416 44.0333 339.416C45.3329 339.416 46.4701 339.726 47.4449 340.344C48.4259 340.963 49.1881 341.831 49.7317 342.95C50.2816 344.068 50.5565 345.377 50.5565 346.877C50.5565 348.364 50.2816 349.664 49.7317 350.776C49.1881 351.888 48.4259 352.753 47.4449 353.372C46.4701 353.991 45.3329 354.3 44.0333 354.3ZM44.0333 352.313C45.0205 352.313 45.8328 352.06 46.4701 351.554C47.1075 351.048 47.5792 350.382 47.8854 349.557C48.1915 348.733 48.3446 347.839 48.3446 346.877C48.3446 345.915 48.1915 345.018 47.8854 344.187C47.5792 343.356 47.1075 342.684 46.4701 342.172C45.8328 341.66 45.0205 341.403 44.0333 341.403C43.0461 341.403 42.2338 341.66 41.5965 342.172C40.9591 342.684 40.4874 343.356 40.1812 344.187C39.8751 345.018 39.722 345.915 39.722 346.877C39.722 347.839 39.8751 348.733 40.1812 349.557C40.4874 350.382 40.9591 351.048 41.5965 351.554C42.2338 352.06 43.0461 352.313 44.0333 352.313ZM55.9949 348.751L55.9574 346.015H56.4073L62.7056 339.604H65.4423L58.7316 346.39H58.5442L55.9949 348.751ZM53.9329 354V334.805H56.1448V354H53.9329ZM63.0805 354L57.457 346.877L59.0316 345.34L65.8922 354H63.0805ZM72.5255 354.337C71.6133 354.337 70.7854 354.166 70.0418 353.822C69.2983 353.472 68.7078 352.969 68.2704 352.313C67.8331 351.651 67.6144 350.851 67.6144 349.914C67.6144 349.089 67.7768 348.42 68.1017 347.908C68.4267 347.389 68.8609 346.983 69.4045 346.689C69.9481 346.396 70.548 346.177 71.204 346.033C71.8663 345.883 72.5318 345.765 73.2004 345.677C74.0751 345.565 74.7843 345.48 75.3279 345.424C75.8778 345.362 76.2776 345.259 76.5276 345.115C76.7838 344.971 76.9118 344.721 76.9118 344.365V344.29C76.9118 343.365 76.6588 342.647 76.1527 342.134C75.6528 341.622 74.8936 341.366 73.8752 341.366C72.8192 341.366 71.9913 341.597 71.3915 342.06C70.7916 342.522 70.3699 343.015 70.1262 343.54L68.0268 342.791C68.4017 341.916 68.9015 341.235 69.5264 340.747C70.1574 340.254 70.8447 339.91 71.5883 339.716C72.3381 339.516 73.0754 339.416 73.8002 339.416C74.2626 339.416 74.7937 339.473 75.3935 339.585C75.9996 339.691 76.5838 339.913 77.1462 340.251C77.7148 340.588 78.1865 341.097 78.5614 341.778C78.9363 342.459 79.1237 343.372 79.1237 344.515V354H76.9118V352.051H76.7994C76.6494 352.363 76.3995 352.697 76.0496 353.053C75.6997 353.41 75.2342 353.713 74.6531 353.963C74.072 354.212 73.3628 354.337 72.5255 354.337ZM72.8629 352.35C73.7377 352.35 74.475 352.179 75.0748 351.835C75.6809 351.491 76.1371 351.048 76.4432 350.504C76.7556 349.96 76.9118 349.389 76.9118 348.789V346.764C76.8181 346.877 76.6119 346.98 76.2933 347.074C75.9808 347.161 75.6184 347.239 75.2061 347.308C74.7999 347.371 74.4032 347.427 74.0158 347.477C73.6346 347.521 73.3253 347.558 73.0879 347.589C72.513 347.664 71.9757 347.786 71.4758 347.955C70.9822 348.117 70.5823 348.364 70.2762 348.695C69.9762 349.02 69.8263 349.464 69.8263 350.026C69.8263 350.795 70.1106 351.376 70.6792 351.769C71.254 352.157 71.9819 352.35 72.8629 352.35ZM84.07 359.399C83.6951 359.399 83.3609 359.367 83.0672 359.305C82.7735 359.249 82.5705 359.192 82.458 359.136L83.0203 357.187C83.5577 357.324 84.0326 357.374 84.4449 357.337C84.8573 357.299 85.2229 357.115 85.5415 356.784C85.8664 356.459 86.1632 355.931 86.4319 355.2L86.8443 354.075L81.5207 339.604H83.9201L87.894 351.076H88.044L92.0179 339.604H94.4172L88.3064 356.099C88.0315 356.843 87.6909 357.458 87.2848 357.946C86.8787 358.439 86.4069 358.805 85.8696 359.042C85.3385 359.28 84.7386 359.399 84.07 359.399ZM101.135 354.337C100.223 354.337 99.3948 354.166 98.6512 353.822C97.9077 353.472 97.3172 352.969 96.8798 352.313C96.4425 351.651 96.2238 350.851 96.2238 349.914C96.2238 349.089 96.3862 348.42 96.7111 347.908C97.036 347.389 97.4703 346.983 98.0139 346.689C98.5575 346.396 99.1573 346.177 99.8134 346.033C100.476 345.883 101.141 345.765 101.81 345.677C102.685 345.565 103.394 345.48 103.937 345.424C104.487 345.362 104.887 345.259 105.137 345.115C105.393 344.971 105.521 344.721 105.521 344.365V344.29C105.521 343.365 105.268 342.647 104.762 342.134C104.262 341.622 103.503 341.366 102.485 341.366C101.429 341.366 100.601 341.597 100.001 342.06C99.401 342.522 98.9793 343.015 98.7356 343.54L96.6362 342.791C97.0111 341.916 97.5109 341.235 98.1357 340.747C98.7668 340.254 99.4541 339.91 100.198 339.716C100.947 339.516 101.685 339.416 102.41 339.416C102.872 339.416 103.403 339.473 104.003 339.585C104.609 339.691 105.193 339.913 105.756 340.251C106.324 340.588 106.796 341.097 107.171 341.778C107.546 342.459 107.733 343.372 107.733 344.515V354H105.521V352.051H105.409C105.259 352.363 105.009 352.697 104.659 353.053C104.309 353.41 103.844 353.713 103.262 353.963C102.681 354.212 101.972 354.337 101.135 354.337ZM101.472 352.35C102.347 352.35 103.084 352.179 103.684 351.835C104.29 351.491 104.746 351.048 105.053 350.504C105.365 349.96 105.521 349.389 105.521 348.789V346.764C105.428 346.877 105.221 346.98 104.903 347.074C104.59 347.161 104.228 347.239 103.815 347.308C103.409 347.371 103.013 347.427 102.625 347.477C102.244 347.521 101.935 347.558 101.697 347.589C101.122 347.664 100.585 347.786 100.085 347.955C99.5916 348.117 99.1917 348.364 98.8855 348.695C98.5856 349.02 98.4357 349.464 98.4357 350.026C98.4357 350.795 98.72 351.376 99.2886 351.769C99.8634 352.157 100.591 352.35 101.472 352.35Z" fill="black"/>
<path d="M20.6278 371.561V370.545H27.7188V371.561H24.7457V380H23.6009V371.561H20.6278ZM30.4598 380.166C30.0104 380.166 29.6027 380.082 29.2364 379.912C28.8702 379.74 28.5793 379.492 28.3639 379.169C28.1485 378.843 28.0407 378.449 28.0407 377.987C28.0407 377.581 28.1208 377.252 28.2808 376.999C28.4408 376.744 28.6547 376.544 28.9225 376.399C29.1903 376.254 29.4857 376.147 29.8089 376.076C30.1351 376.002 30.4629 375.944 30.7922 375.901C31.223 375.845 31.5724 375.804 31.8401 375.776C32.1109 375.745 32.3079 375.694 32.431 375.624C32.5572 375.553 32.6203 375.43 32.6203 375.254V375.217C32.6203 374.762 32.4956 374.408 32.2464 374.156C32.0001 373.903 31.6262 373.777 31.1246 373.777C30.6044 373.777 30.1966 373.891 29.9012 374.119C29.6057 374.346 29.398 374.589 29.278 374.848L28.2439 374.479C28.4285 374.048 28.6747 373.712 28.9825 373.472C29.2934 373.229 29.6319 373.06 29.9981 372.964C30.3675 372.866 30.7306 372.817 31.0876 372.817C31.3154 372.817 31.577 372.844 31.8724 372.9C32.171 372.952 32.4587 373.061 32.7357 373.228C33.0158 373.394 33.2481 373.645 33.4328 373.98C33.6175 374.316 33.7098 374.765 33.7098 375.328V380H32.6203V379.04H32.5649C32.491 379.194 32.3679 379.358 32.1956 379.534C32.0232 379.709 31.7939 379.858 31.5077 379.982C31.2215 380.105 30.8722 380.166 30.4598 380.166ZM30.626 379.188C31.0568 379.188 31.42 379.103 31.7155 378.934C32.014 378.764 32.2387 378.546 32.3895 378.278C32.5434 378.01 32.6203 377.729 32.6203 377.433V376.436C32.5741 376.491 32.4726 376.542 32.3156 376.588C32.1617 376.632 31.9832 376.67 31.7801 376.704C31.58 376.735 31.3846 376.762 31.1938 376.787C31.0061 376.808 30.8537 376.827 30.7368 376.842C30.4536 376.879 30.189 376.939 29.9427 377.022C29.6996 377.102 29.5026 377.224 29.3518 377.387C29.2041 377.547 29.1302 377.766 29.1302 378.043C29.1302 378.421 29.2703 378.707 29.5503 378.901C29.8335 379.092 30.192 379.188 30.626 379.188ZM36.7878 370.545V380H35.6983V370.545H36.7878ZM41.7563 380.148C41.0731 380.148 40.4837 379.997 39.9882 379.695C39.4958 379.391 39.1157 378.966 38.8479 378.421C38.5832 377.873 38.4509 377.236 38.4509 376.51C38.4509 375.784 38.5832 375.143 38.8479 374.589C39.1157 374.032 39.4881 373.598 39.9651 373.288C40.4452 372.974 41.0054 372.817 41.6455 372.817C42.0148 372.817 42.3795 372.878 42.7396 373.001C43.0997 373.125 43.4275 373.325 43.7229 373.602C44.0184 373.875 44.2538 374.239 44.4292 374.691C44.6047 375.143 44.6924 375.701 44.6924 376.362V376.824H39.2265V375.882H43.5844C43.5844 375.482 43.5044 375.125 43.3444 374.811C43.1874 374.497 42.9627 374.249 42.6704 374.068C42.3811 373.886 42.0394 373.795 41.6455 373.795C41.2116 373.795 40.8361 373.903 40.5191 374.119C40.2052 374.331 39.9636 374.608 39.7943 374.95C39.625 375.291 39.5404 375.657 39.5404 376.048V376.676C39.5404 377.212 39.6327 377.666 39.8174 378.038C40.0051 378.407 40.2652 378.689 40.5976 378.883C40.93 379.074 41.3162 379.169 41.7563 379.169C42.0425 379.169 42.301 379.129 42.5319 379.049C42.7658 378.966 42.9674 378.843 43.1366 378.68C43.3059 378.513 43.4367 378.307 43.529 378.061L44.5816 378.357C44.4708 378.714 44.2846 379.027 44.023 379.298C43.7614 379.566 43.4382 379.775 43.0535 379.926C42.6688 380.074 42.2364 380.148 41.7563 380.148ZM47.4392 375.734V380H46.3497V372.909H47.4023V374.017H47.4946C47.6608 373.657 47.9131 373.368 48.2517 373.149C48.5902 372.928 49.0273 372.817 49.5628 372.817C50.0429 372.817 50.463 372.915 50.8231 373.112C51.1832 373.306 51.4632 373.602 51.6633 373.999C51.8633 374.393 51.9633 374.891 51.9633 375.494V380H50.8738V375.568C50.8738 375.011 50.7292 374.577 50.4399 374.266C50.1506 373.952 49.7536 373.795 49.2488 373.795C48.9011 373.795 48.5902 373.871 48.3163 374.022C48.0455 374.172 47.8316 374.393 47.6746 374.682C47.5177 374.971 47.4392 375.322 47.4392 375.734ZM57.038 372.909V373.832H53.3633V372.909H57.038ZM54.4343 371.21H55.5238V377.969C55.5238 378.277 55.5684 378.507 55.6577 378.661C55.75 378.812 55.867 378.914 56.0085 378.966C56.1532 379.015 56.3055 379.04 56.4656 379.04C56.5856 379.04 56.6841 379.034 56.761 379.021C56.838 379.006 56.8995 378.994 56.9457 378.984L57.1673 379.963C57.0934 379.991 56.9903 380.018 56.858 380.046C56.7256 380.077 56.5579 380.092 56.3548 380.092C56.047 380.092 55.7454 380.026 55.4499 379.894C55.1576 379.761 54.9144 379.56 54.7205 379.289C54.5297 379.018 54.4343 378.677 54.4343 378.264V371.21ZM62.4854 375.439V376.455H58.3491V375.439H62.4854ZM63.0683 371.561V370.545H70.1592V371.561H67.1862V380H66.0413V371.561H63.0683ZM73.7231 380.148C73.0399 380.148 72.4505 379.997 71.955 379.695C71.4626 379.391 71.0825 378.966 70.8147 378.421C70.55 377.873 70.4177 377.236 70.4177 376.51C70.4177 375.784 70.55 375.143 70.8147 374.589C71.0825 374.032 71.4549 373.598 71.9319 373.288C72.412 372.974 72.9722 372.817 73.6123 372.817C73.9816 372.817 74.3463 372.878 74.7064 373.001C75.0665 373.125 75.3943 373.325 75.6897 373.602C75.9852 373.875 76.2206 374.239 76.396 374.691C76.5715 375.143 76.6592 375.701 76.6592 376.362V376.824H71.1933V375.882H75.5512C75.5512 375.482 75.4712 375.125 75.3112 374.811C75.1542 374.497 74.9295 374.249 74.6372 374.068C74.3479 373.886 74.0062 373.795 73.6123 373.795C73.1784 373.795 72.8029 373.903 72.4859 374.119C72.172 374.331 71.9304 374.608 71.7611 374.95C71.5918 375.291 71.5072 375.657 71.5072 376.048V376.676C71.5072 377.212 71.5995 377.666 71.7842 378.038C71.9719 378.407 72.232 378.689 72.5644 378.883C72.8968 379.074 73.283 379.169 73.7231 379.169C74.0093 379.169 74.2678 379.129 74.4987 379.049C74.7326 378.966 74.9342 378.843 75.1034 378.68C75.2727 378.513 75.4035 378.307 75.4958 378.061L76.5484 378.357C76.4376 378.714 76.2514 379.027 75.9898 379.298C75.7282 379.566 75.405 379.775 75.0203 379.926C74.6356 380.074 74.2032 380.148 73.7231 380.148ZM81.1972 380.148C80.5324 380.148 79.96 379.991 79.4798 379.677C78.9997 379.363 78.6304 378.931 78.3719 378.38C78.1134 377.829 77.9841 377.199 77.9841 376.491C77.9841 375.771 78.1164 375.136 78.3811 374.585C78.6489 374.031 79.0213 373.598 79.4983 373.288C79.9784 372.974 80.5386 372.817 81.1787 372.817C81.6773 372.817 82.1266 372.909 82.5267 373.094C82.9268 373.278 83.2546 373.537 83.51 373.869C83.7655 374.202 83.924 374.589 83.9855 375.033H82.896C82.8129 374.71 82.6283 374.423 82.3421 374.174C82.0589 373.922 81.6773 373.795 81.1972 373.795C80.7725 373.795 80.4001 373.906 80.08 374.128C79.763 374.346 79.5152 374.656 79.3367 375.056C79.1613 375.453 79.0736 375.919 79.0736 376.455C79.0736 377.002 79.1598 377.479 79.3321 377.886C79.5075 378.292 79.7538 378.607 80.0708 378.832C80.3908 379.057 80.7663 379.169 81.1972 379.169C81.4803 379.169 81.7373 379.12 81.9681 379.021C82.199 378.923 82.3944 378.781 82.5544 378.597C82.7145 378.412 82.8283 378.19 82.896 377.932H83.9855C83.924 378.35 83.7716 378.727 83.5285 379.063C83.2884 379.395 82.9699 379.66 82.5729 379.857C82.1789 380.051 81.7204 380.148 81.1972 380.148ZM86.6677 375.734V380H85.5782V370.545H86.6677V374.017H86.76C86.9262 373.651 87.1755 373.36 87.5079 373.145C87.8434 372.926 88.2896 372.817 88.8467 372.817C89.3299 372.817 89.753 372.914 90.1162 373.108C90.4794 373.298 90.761 373.592 90.961 373.989C91.1642 374.383 91.2657 374.885 91.2657 375.494V380H90.1762V375.568C90.1762 375.005 90.03 374.569 89.7377 374.262C89.4484 373.951 89.0467 373.795 88.5328 373.795C88.1758 373.795 87.8557 373.871 87.5725 374.022C87.2925 374.172 87.0709 374.393 86.9078 374.682C86.7477 374.971 86.6677 375.322 86.6677 375.734Z" fill="black"/>
</svg>
