<svg width="287" height="420" viewBox="0 0 287 420" fill="none" xmlns="http://www.w3.org/2000/svg">
<rect width="287" height="420" rx="10" fill="white"/>
<path d="M103.427 104.032C125.618 104.068 125.291 103.884 146.35 127.987C159.473 143.006 167.508 147.183 170.895 148.254C173.241 148.995 178.489 149.606 187.14 149.61L201.816 149.616C202.398 149.617 202.869 150.088 202.869 150.669V207.943C202.869 208.524 202.397 208.996 201.815 208.996H185.772C172.784 208.996 167.73 208.539 164.742 207.096C162.381 205.956 152.812 202.389 142.876 190.998C133.768 180.559 125.778 173.717 124.127 172.999C122.459 172.273 113.888 164.618 104.157 164.617H87.6846C87.1028 164.617 86.631 164.145 86.6309 163.564V105.061C86.6309 104.478 87.1032 104.006 87.6855 104.007L103.427 104.032Z" fill="black"/>
<path d="M69.1377 226.655C69.1379 228.982 71.0245 230.869 73.3516 230.869H99.75V244.001H63.374C59.3014 244.001 56 240.699 56 236.626V200.251H69.1377V226.655ZM231.001 236.626C231.001 240.699 227.699 244.001 223.626 244.001H187.251V230.869H213.66C215.987 230.869 217.874 228.982 217.874 226.655V200.251H231.001V236.626ZM99.75 82.1328H73.3516C71.0244 82.1329 69.1377 84.0195 69.1377 86.3467V112.75H56V76.374C56.0002 72.3015 59.3015 69.0002 63.374 69H99.75V82.1328ZM223.626 69C227.699 69 231.001 72.3014 231.001 76.374V112.75H217.874V86.3467C217.874 84.0194 215.987 82.1328 213.66 82.1328H187.251V69H223.626Z" fill="#FF9E0C"/>
<rect y="276" width="287" height="144" rx="10" fill="#FF9E0C"/>
<path d="M22.3244 334.805H25.0986L31.6218 350.738H31.8468L38.37 334.805H41.1442V354H38.9698V339.416H38.7824L32.784 354H30.6846L24.6862 339.416H24.4988V354H22.3244V334.805ZM46.9294 359.399C46.5545 359.399 46.2202 359.367 45.9265 359.305C45.6329 359.249 45.4298 359.192 45.3173 359.136L45.8797 357.187C46.417 357.324 46.8919 357.374 47.3043 357.337C47.7167 357.299 48.0822 357.115 48.4009 356.784C48.7258 356.459 49.0226 355.931 49.2912 355.2L49.7036 354.075L44.3801 339.604H46.7794L50.7533 351.076H50.9033L54.8772 339.604H57.2766L51.1657 356.099C50.8908 356.843 50.5503 357.458 50.1441 357.946C49.738 358.439 49.2662 358.805 48.7289 359.042C48.1978 359.28 47.598 359.399 46.9294 359.399ZM74.8921 348.002H77.4414L79.5783 350.813L80.1407 351.563L83.3273 355.8H80.778L78.6785 352.988L78.1537 352.275L74.8921 348.002ZM84.1146 344.403C84.1146 346.427 83.749 348.177 83.018 349.651C82.2869 351.126 81.2841 352.263 80.0094 353.063C78.7348 353.863 77.2789 354.262 75.6419 354.262C74.0048 354.262 72.549 353.863 71.2743 353.063C69.9997 352.263 68.9968 351.126 68.2658 349.651C67.5347 348.177 67.1692 346.427 67.1692 344.403C67.1692 342.378 67.5347 340.629 68.2658 339.154C68.9968 337.679 69.9997 336.542 71.2743 335.742C72.549 334.943 74.0048 334.543 75.6419 334.543C77.2789 334.543 78.7348 334.943 80.0094 335.742C81.2841 336.542 82.2869 337.679 83.018 339.154C83.749 340.629 84.1146 342.378 84.1146 344.403ZM81.8652 344.403C81.8652 342.741 81.5871 341.338 81.031 340.194C80.4812 339.051 79.7345 338.186 78.791 337.598C77.8538 337.011 76.8041 336.717 75.6419 336.717C74.4797 336.717 73.4269 337.011 72.4834 337.598C71.5461 338.186 70.7994 339.051 70.2433 340.194C69.6935 341.338 69.4186 342.741 69.4186 344.403C69.4186 346.065 69.6935 347.467 70.2433 348.611C70.7994 349.754 71.5461 350.62 72.4834 351.207C73.4269 351.794 74.4797 352.088 75.6419 352.088C76.8041 352.088 77.8538 351.794 78.791 351.207C79.7345 350.62 80.4812 349.754 81.031 348.611C81.5871 347.467 81.8652 346.065 81.8652 344.403ZM88.0229 354V334.805H94.5086C96.0082 334.805 97.2391 335.061 98.2014 335.574C99.1636 336.08 99.8759 336.777 100.338 337.664C100.801 338.551 101.032 339.56 101.032 340.691C101.032 341.822 100.801 342.825 100.338 343.7C99.8759 344.574 99.1667 345.262 98.2107 345.762C97.2547 346.255 96.0332 346.502 94.5461 346.502H89.2975V344.403H94.4711C95.4958 344.403 96.3206 344.253 96.9454 343.953C97.5765 343.653 98.0326 343.228 98.3138 342.678C98.6012 342.122 98.745 341.46 98.745 340.691C98.745 339.923 98.6012 339.251 98.3138 338.676C98.0264 338.101 97.5672 337.658 96.9361 337.345C96.305 337.026 95.4708 336.867 94.4336 336.867H90.3472V354H88.0229ZM97.0579 345.377L101.782 354H99.0824L94.4336 345.377H97.0579ZM112.328 334.805H115.102L121.625 350.738H121.85L128.374 334.805H131.148V354H128.973V339.416H128.786L122.788 354H120.688L114.69 339.416H114.502V354H112.328V334.805ZM141.544 354.3C140.157 354.3 138.961 353.994 137.955 353.381C136.955 352.763 136.183 351.901 135.64 350.795C135.102 349.682 134.834 348.389 134.834 346.914C134.834 345.44 135.102 344.14 135.64 343.015C136.183 341.885 136.939 341.004 137.908 340.372C138.882 339.735 140.02 339.416 141.319 339.416C142.069 339.416 142.81 339.541 143.541 339.791C144.272 340.041 144.937 340.447 145.537 341.01C146.137 341.566 146.615 342.303 146.971 343.222C147.327 344.14 147.505 345.271 147.505 346.615V347.552H136.408V345.64H145.256C145.256 344.827 145.093 344.103 144.768 343.465C144.45 342.828 143.994 342.325 143.4 341.956C142.813 341.588 142.119 341.403 141.319 341.403C140.438 341.403 139.676 341.622 139.032 342.06C138.395 342.491 137.905 343.053 137.561 343.747C137.217 344.44 137.045 345.184 137.045 345.977V347.252C137.045 348.339 137.233 349.261 137.608 350.017C137.989 350.767 138.517 351.338 139.192 351.732C139.867 352.119 140.651 352.313 141.544 352.313C142.125 352.313 142.65 352.232 143.119 352.069C143.594 351.901 144.003 351.651 144.347 351.319C144.69 350.982 144.956 350.563 145.143 350.064L147.28 350.663C147.055 351.388 146.677 352.026 146.146 352.575C145.615 353.119 144.959 353.544 144.178 353.85C143.397 354.15 142.519 354.3 141.544 354.3ZM153.082 345.34V354H150.87V339.604H153.007V341.853H153.194C153.532 341.122 154.044 340.535 154.731 340.091C155.419 339.641 156.306 339.416 157.393 339.416C158.368 339.416 159.221 339.616 159.952 340.016C160.683 340.41 161.251 341.01 161.658 341.816C162.064 342.616 162.267 343.628 162.267 344.852V354H160.055V345.002C160.055 343.872 159.761 342.99 159.174 342.359C158.586 341.722 157.78 341.403 156.756 341.403C156.05 341.403 155.419 341.557 154.862 341.863C154.313 342.169 153.878 342.616 153.56 343.203C153.241 343.79 153.082 344.503 153.082 345.34ZM175.381 348.114V339.604H177.593V354H175.381V351.563H175.231C174.894 352.294 174.369 352.916 173.657 353.428C172.944 353.934 172.045 354.187 170.957 354.187C170.058 354.187 169.258 353.991 168.558 353.597C167.858 353.197 167.308 352.597 166.908 351.797C166.509 350.991 166.309 349.976 166.309 348.751V339.604H168.52V348.601C168.52 349.651 168.814 350.488 169.401 351.113C169.995 351.738 170.751 352.051 171.67 352.051C172.219 352.051 172.779 351.91 173.347 351.629C173.922 351.348 174.403 350.916 174.791 350.335C175.184 349.754 175.381 349.014 175.381 348.114Z" fill="black"/>
<path d="M21.1449 380V370.545H22.2898V374.756H27.331V370.545H28.4759V380H27.331V375.771H22.2898V380H21.1449ZM33.5009 380.148C32.8607 380.148 32.2991 379.995 31.8159 379.691C31.3358 379.386 30.9603 378.96 30.6895 378.412C30.4217 377.864 30.2878 377.224 30.2878 376.491C30.2878 375.753 30.4217 375.108 30.6895 374.557C30.9603 374.006 31.3358 373.578 31.8159 373.274C32.2991 372.969 32.8607 372.817 33.5009 372.817C34.141 372.817 34.7012 372.969 35.1813 373.274C35.6645 373.578 36.04 374.006 36.3077 374.557C36.5785 375.108 36.714 375.753 36.714 376.491C36.714 377.224 36.5785 377.864 36.3077 378.412C36.04 378.96 35.6645 379.386 35.1813 379.691C34.7012 379.995 34.141 380.148 33.5009 380.148ZM33.5009 379.169C33.9872 379.169 34.3873 379.044 34.7012 378.795C35.0151 378.546 35.2475 378.218 35.3983 377.812C35.5491 377.406 35.6245 376.965 35.6245 376.491C35.6245 376.018 35.5491 375.576 35.3983 375.167C35.2475 374.757 35.0151 374.426 34.7012 374.174C34.3873 373.922 33.9872 373.795 33.5009 373.795C33.0146 373.795 32.6145 373.922 32.3006 374.174C31.9867 374.426 31.7543 374.757 31.6035 375.167C31.4527 375.576 31.3773 376.018 31.3773 376.491C31.3773 376.965 31.4527 377.406 31.6035 377.812C31.7543 378.218 31.9867 378.546 32.3006 378.795C32.6145 379.044 33.0146 379.169 33.5009 379.169ZM43.3998 374.497L42.4211 374.774C42.3595 374.611 42.2687 374.453 42.1487 374.299C42.0318 374.142 41.8717 374.012 41.6686 373.911C41.4655 373.809 41.2054 373.759 40.8884 373.759C40.4545 373.759 40.0928 373.859 39.8035 374.059C39.5173 374.256 39.3742 374.506 39.3742 374.811C39.3742 375.082 39.4727 375.296 39.6697 375.453C39.8666 375.61 40.1744 375.741 40.593 375.845L41.6455 376.104C42.2795 376.258 42.7519 376.493 43.0628 376.81C43.3736 377.124 43.529 377.529 43.529 378.024C43.529 378.43 43.4121 378.794 43.1782 379.114C42.9474 379.434 42.6242 379.686 42.2087 379.871C41.7932 380.055 41.31 380.148 40.7591 380.148C40.0359 380.148 39.4373 379.991 38.9633 379.677C38.4894 379.363 38.1893 378.904 38.0631 378.301L39.0972 378.043C39.1957 378.424 39.3819 378.71 39.6558 378.901C39.9328 379.092 40.2944 379.188 40.7407 379.188C41.2485 379.188 41.6517 379.08 41.9502 378.864C42.2518 378.646 42.4026 378.384 42.4026 378.08C42.4026 377.833 42.3164 377.627 42.1441 377.461C41.9717 377.292 41.7071 377.165 41.3501 377.082L40.1682 376.805C39.5189 376.652 39.0418 376.413 38.7371 376.09C38.4355 375.764 38.2847 375.356 38.2847 374.866C38.2847 374.466 38.397 374.112 38.6217 373.805C38.8495 373.497 39.1588 373.255 39.5496 373.08C39.9436 372.904 40.3898 372.817 40.8884 372.817C41.5901 372.817 42.141 372.971 42.5411 373.278C42.9443 373.586 43.2305 373.992 43.3998 374.497ZM45.169 382.659V372.909H46.2216V374.036H46.3509C46.4309 373.912 46.5417 373.755 46.6832 373.565C46.8279 373.371 47.0341 373.198 47.3018 373.048C47.5727 372.894 47.9389 372.817 48.4006 372.817C48.9976 372.817 49.5239 372.966 49.9794 373.265C50.4349 373.563 50.7904 373.986 51.0458 374.534C51.3013 375.082 51.429 375.728 51.429 376.473C51.429 377.224 51.3013 377.875 51.0458 378.426C50.7904 378.974 50.4364 379.398 49.984 379.7C49.5316 379.998 49.0099 380.148 48.419 380.148C47.9635 380.148 47.5988 380.072 47.3249 379.922C47.051 379.768 46.8402 379.594 46.6925 379.4C46.5447 379.203 46.4309 379.04 46.3509 378.911H46.2585V382.659H45.169ZM46.2401 376.455C46.2401 376.99 46.3185 377.462 46.4755 377.872C46.6325 378.278 46.8617 378.597 47.1634 378.827C47.465 379.055 47.8343 379.169 48.2713 379.169C48.7268 379.169 49.1069 379.049 49.4116 378.809C49.7193 378.566 49.9502 378.24 50.104 377.83C50.261 377.418 50.3395 376.959 50.3395 376.455C50.3395 375.956 50.2625 375.507 50.1087 375.107C49.9579 374.703 49.7286 374.385 49.4208 374.151C49.1161 373.914 48.733 373.795 48.2713 373.795C47.8281 373.795 47.4557 373.908 47.1541 374.132C46.8525 374.354 46.6248 374.665 46.4709 375.065C46.317 375.462 46.2401 375.925 46.2401 376.455ZM53.0909 380V372.909H54.1804V380H53.0909ZM53.6449 371.727C53.4325 371.727 53.2494 371.655 53.0955 371.51C52.9447 371.366 52.8693 371.192 52.8693 370.989C52.8693 370.786 52.9447 370.612 53.0955 370.467C53.2494 370.322 53.4325 370.25 53.6449 370.25C53.8572 370.25 54.0388 370.322 54.1896 370.467C54.3435 370.612 54.4205 370.786 54.4205 370.989C54.4205 371.192 54.3435 371.366 54.1896 371.51C54.0388 371.655 53.8572 371.727 53.6449 371.727ZM59.2597 372.909V373.832H55.585V372.909H59.2597ZM56.656 371.21H57.7455V377.969C57.7455 378.277 57.7901 378.507 57.8794 378.661C57.9717 378.812 58.0886 378.914 58.2302 378.966C58.3749 379.015 58.5272 379.04 58.6872 379.04C58.8073 379.04 58.9057 379.034 58.9827 379.021C59.0596 379.006 59.1212 378.994 59.1673 378.984L59.3889 379.963C59.3151 379.991 59.212 380.018 59.0796 380.046C58.9473 380.077 58.7796 380.092 58.5764 380.092C58.2687 380.092 57.9671 380.026 57.6716 379.894C57.3792 379.761 57.1361 379.56 56.9422 379.289C56.7514 379.018 56.656 378.677 56.656 378.264V371.21ZM62.9852 380.166C62.5358 380.166 62.128 380.082 61.7618 379.912C61.3956 379.74 61.1047 379.492 60.8893 379.169C60.6739 378.843 60.5661 378.449 60.5661 377.987C60.5661 377.581 60.6462 377.252 60.8062 376.999C60.9662 376.744 61.1801 376.544 61.4479 376.399C61.7156 376.254 62.0111 376.147 62.3343 376.076C62.6605 376.002 62.9883 375.944 63.3176 375.901C63.7484 375.845 64.0977 375.804 64.3655 375.776C64.6363 375.745 64.8333 375.694 64.9564 375.624C65.0826 375.553 65.1457 375.43 65.1457 375.254V375.217C65.1457 374.762 65.021 374.408 64.7718 374.156C64.5255 373.903 64.1516 373.777 63.6499 373.777C63.1298 373.777 62.722 373.891 62.4266 374.119C62.1311 374.346 61.9234 374.589 61.8034 374.848L60.7693 374.479C60.9539 374.048 61.2001 373.712 61.5079 373.472C61.8187 373.229 62.1573 373.06 62.5235 372.964C62.8928 372.866 63.256 372.817 63.613 372.817C63.8408 372.817 64.1024 372.844 64.3978 372.9C64.6963 372.952 64.9841 373.061 65.2611 373.228C65.5412 373.394 65.7735 373.645 65.9582 373.98C66.1428 374.316 66.2352 374.765 66.2352 375.328V380H65.1457V379.04H65.0903C65.0164 379.194 64.8933 379.358 64.721 379.534C64.5486 379.709 64.3193 379.858 64.0331 379.982C63.7469 380.105 63.3976 380.166 62.9852 380.166ZM63.1514 379.188C63.5822 379.188 63.9454 379.103 64.2409 378.934C64.5394 378.764 64.7641 378.546 64.9149 378.278C65.0687 378.01 65.1457 377.729 65.1457 377.433V376.436C65.0995 376.491 64.998 376.542 64.841 376.588C64.6871 376.632 64.5086 376.67 64.3055 376.704C64.1054 376.735 63.91 376.762 63.7192 376.787C63.5315 376.808 63.3791 376.827 63.2622 376.842C62.979 376.879 62.7143 376.939 62.4681 377.022C62.225 377.102 62.028 377.224 61.8772 377.387C61.7295 377.547 61.6556 377.766 61.6556 378.043C61.6556 378.421 61.7957 378.707 62.0757 378.901C62.3589 379.092 62.7174 379.188 63.1514 379.188ZM69.3132 370.545V380H68.2237V370.545H69.3132ZM71.3087 380V372.909H72.3982V380H71.3087ZM71.8627 371.727C71.6503 371.727 71.4672 371.655 71.3133 371.51C71.1625 371.366 71.0871 371.192 71.0871 370.989C71.0871 370.786 71.1625 370.612 71.3133 370.467C71.4672 370.322 71.6503 370.25 71.8627 370.25C72.075 370.25 72.2566 370.322 72.4074 370.467C72.5613 370.612 72.6382 370.786 72.6382 370.989C72.6382 371.192 72.5613 371.366 72.4074 371.51C72.2566 371.655 72.075 371.727 71.8627 371.727ZM77.4775 372.909V373.832H73.8027V372.909H77.4775ZM74.8738 371.21H75.9632V377.969C75.9632 378.277 76.0079 378.507 76.0971 378.661C76.1895 378.812 76.3064 378.914 76.448 378.966C76.5926 379.015 76.745 379.04 76.905 379.04C77.025 379.04 77.1235 379.034 77.2005 379.021C77.2774 379.006 77.339 378.994 77.3851 378.984L77.6067 379.963C77.5328 379.991 77.4297 380.018 77.2974 380.046C77.1651 380.077 76.9973 380.092 76.7942 380.092C76.4864 380.092 76.1848 380.026 75.8894 379.894C75.597 379.761 75.3539 379.56 75.16 379.289C74.9692 379.018 74.8738 378.677 74.8738 378.264V371.21ZM79.818 382.659C79.6333 382.659 79.4687 382.644 79.324 382.613C79.1794 382.585 79.0794 382.558 79.024 382.53L79.301 381.57C79.5656 381.637 79.7995 381.662 80.0027 381.643C80.2058 381.625 80.3858 381.534 80.5428 381.371C80.7028 381.211 80.849 380.951 80.9814 380.591L81.1845 380.037L78.5623 372.909H79.7441L81.7015 378.56H81.7754L83.7328 372.909H84.9146L81.9047 381.034C81.7692 381.4 81.6015 381.703 81.4015 381.944C81.2014 382.187 80.969 382.367 80.7044 382.484C80.4428 382.601 80.1473 382.659 79.818 382.659Z" fill="black"/>
</svg>
