<svg width="64" height="63" viewBox="0 0 64 63" fill="none" xmlns="http://www.w3.org/2000/svg">
<path d="M20.6157 3.98938C18.9306 3.98938 17.3145 4.65879 16.1229 5.85035C14.9314 7.04191 14.262 8.65801 14.262 10.3431V52.3756C14.262 54.0607 14.9314 55.6769 16.1229 56.8684C17.3145 58.06 18.9306 58.7294 20.6157 58.7294H43.0982C44.7833 58.7294 46.3994 58.06 47.591 56.8684C48.7826 55.6769 49.452 54.0607 49.452 52.3756V10.3431C49.452 8.65801 48.7826 7.04191 47.591 5.85035C46.3994 4.65879 44.7833 3.98938 43.0982 3.98938H20.6157ZM27.947 46.9994H35.767C36.2855 46.9994 36.7827 47.2054 37.1494 47.572C37.516 47.9386 37.722 48.4359 37.722 48.9544C37.722 49.4729 37.516 49.9701 37.1494 50.3368C36.7827 50.7034 36.2855 50.9094 35.767 50.9094H27.947C27.4285 50.9094 26.9312 50.7034 26.5646 50.3368C26.1979 49.9701 25.992 49.4729 25.992 48.9544C25.992 48.4359 26.1979 47.9386 26.5646 47.572C26.9312 47.2054 27.4285 46.9994 27.947 46.9994Z" fill="#FFB81C"/>
</svg>
