<svg width="60" height="60" viewBox="0 0 60 60" fill="none" xmlns="http://www.w3.org/2000/svg">
<g clip-path="url(#clip0_279_407)">
<path d="M54.4799 46.7587C53.5725 48.8549 52.4985 50.7845 51.2541 52.5585C49.5578 54.977 48.169 56.651 47.0987 57.5806C45.4394 59.1065 43.6617 59.888 41.7581 59.9324C40.3915 59.9324 38.7434 59.5435 36.8249 58.7547C34.9002 57.9695 33.1313 57.5806 31.514 57.5806C29.8177 57.5806 27.9985 57.9695 26.0527 58.7547C24.1038 59.5435 22.5339 59.9546 21.3335 59.9954C19.5081 60.0731 17.6885 59.2695 15.8722 57.5806C14.713 56.5695 13.2631 54.8363 11.5261 52.3808C9.66244 49.7586 8.13027 46.718 6.92994 43.2514C5.64442 39.5071 5 35.8813 5 32.371C5 28.35 5.86886 24.882 7.60918 21.9758C8.97691 19.6414 10.7965 17.8 13.0738 16.4481C15.3512 15.0963 17.8118 14.4075 20.4617 14.3634C21.9117 14.3634 23.8131 14.8119 26.176 15.6934C28.5322 16.5778 30.0451 17.0263 30.7084 17.0263C31.2043 17.0263 32.885 16.5019 35.7342 15.4563C38.4286 14.4867 40.7026 14.0853 42.5655 14.2434C47.6134 14.6508 51.4059 16.6407 53.9281 20.2258C49.4134 22.9613 47.1801 26.7927 47.2246 31.7077C47.2653 35.5361 48.6542 38.7219 51.3837 41.2515C52.6207 42.4255 54.0021 43.3329 55.5391 43.9773C55.2058 44.944 54.854 45.8699 54.4799 46.7587ZM42.9025 1.20083C42.9025 4.20152 41.8062 7.00325 39.6211 9.5965C36.9842 12.6794 33.7946 14.4608 30.3359 14.1797C30.2918 13.8197 30.2662 13.4408 30.2662 13.0427C30.2662 10.162 31.5203 7.07917 33.7472 4.55851C34.859 3.28225 36.2731 2.22106 37.9878 1.37453C39.6989 0.540626 41.3174 0.0794608 42.8395 0.000488281C42.884 0.401633 42.9025 0.802803 42.9025 1.20079V1.20083Z" fill="#0A2540"/>
</g>
<defs>
<clipPath id="clip0_279_407">
<rect width="60" height="60" fill="white"/>
</clipPath>
</defs>
</svg>
