<svg width="239" height="54" viewBox="0 0 239 54" fill="none" xmlns="http://www.w3.org/2000/svg">
<path d="M48.3374 37H43.6968V23.9091H48.3757C49.6925 23.9091 50.826 24.1712 51.7763 24.6953C52.7266 25.2152 53.4574 25.9631 53.9688 26.9389C54.4844 27.9148 54.7422 29.0824 54.7422 30.4418C54.7422 31.8054 54.4844 32.9773 53.9688 33.9574C53.4574 34.9375 52.7223 35.6896 51.7635 36.2138C50.809 36.7379 49.6669 37 48.3374 37ZM46.4645 34.6286H48.2223C49.0405 34.6286 49.7287 34.4837 50.287 34.1939C50.8495 33.8999 51.2713 33.446 51.5526 32.8324C51.8381 32.2145 51.9809 31.4176 51.9809 30.4418C51.9809 29.4744 51.8381 28.6839 51.5526 28.0703C51.2713 27.4567 50.8516 27.005 50.2934 26.7152C49.7351 26.4254 49.0469 26.2805 48.2287 26.2805H46.4645V34.6286ZM63.1411 37.1854C62.5146 37.1854 61.9564 37.0767 61.4663 36.8594C60.9763 36.6378 60.5885 36.3118 60.303 35.8814C60.0217 35.4467 59.8811 34.9055 59.8811 34.2578C59.8811 33.7124 59.9812 33.2543 60.1815 32.8835C60.3818 32.5128 60.6545 32.2145 60.9997 31.9886C61.3449 31.7628 61.7369 31.5923 62.1759 31.4773C62.619 31.3622 63.0835 31.2812 63.5693 31.2344C64.1403 31.1747 64.6006 31.1193 64.95 31.0682C65.2994 31.0128 65.553 30.9318 65.7107 30.8253C65.8683 30.7187 65.9472 30.5611 65.9472 30.3523V30.3139C65.9472 29.9091 65.8193 29.5959 65.5636 29.3743C65.3122 29.1527 64.9543 29.0419 64.4898 29.0419C63.9997 29.0419 63.6098 29.1506 63.32 29.3679C63.0303 29.581 62.8385 29.8494 62.7447 30.1733L60.2263 29.9688C60.3541 29.3722 60.6055 28.8565 60.9805 28.4219C61.3555 27.983 61.8392 27.6463 62.4315 27.4119C63.0281 27.1733 63.7185 27.054 64.5026 27.054C65.048 27.054 65.57 27.1179 66.0686 27.2457C66.5714 27.3736 67.0168 27.5717 67.4045 27.8402C67.7966 28.1087 68.1055 28.4538 68.3314 28.8757C68.5572 29.2933 68.6702 29.794 68.6702 30.3778V37H66.0878V35.6385H66.0111C65.8534 35.9453 65.6425 36.2159 65.3783 36.4503C65.1141 36.6804 64.7966 36.8615 64.4259 36.9936C64.0551 37.1214 63.6268 37.1854 63.1411 37.1854ZM63.9209 35.3061C64.3214 35.3061 64.6751 35.2273 64.982 35.0696C65.2888 34.9077 65.5295 34.6903 65.7043 34.4176C65.879 34.1449 65.9663 33.8359 65.9663 33.4908V32.4489C65.8811 32.5043 65.7639 32.5554 65.6148 32.6023C65.4699 32.6449 65.3058 32.6854 65.1226 32.7237C64.9393 32.7578 64.7561 32.7898 64.5729 32.8196C64.3896 32.8452 64.2234 32.8686 64.0743 32.8899C63.7547 32.9368 63.4756 33.0114 63.2369 33.1136C62.9983 33.2159 62.8129 33.3544 62.6808 33.5291C62.5487 33.6996 62.4827 33.9126 62.4827 34.1683C62.4827 34.5391 62.6169 34.8224 62.8854 35.0185C63.1581 35.2102 63.5033 35.3061 63.9209 35.3061ZM82.5518 29.9815L80.0589 30.1349C80.0163 29.9219 79.9246 29.7301 79.784 29.5597C79.6434 29.3849 79.458 29.2464 79.2279 29.1442C79.0021 29.0376 78.7315 28.9844 78.4161 28.9844C77.9942 28.9844 77.6384 29.0739 77.3486 29.2528C77.0589 29.4276 76.914 29.6619 76.914 29.956C76.914 30.1903 77.0077 30.3885 77.1952 30.5504C77.3827 30.7124 77.7045 30.8423 78.1604 30.9403L79.9374 31.2983C80.892 31.4943 81.6036 31.8097 82.0724 32.2443C82.5411 32.679 82.7755 33.25 82.7755 33.9574C82.7755 34.6009 82.5859 35.1655 82.2066 35.6513C81.8316 36.1371 81.316 36.5163 80.6597 36.7891C80.0077 37.0575 79.2556 37.1918 78.4033 37.1918C77.1036 37.1918 76.0681 36.9212 75.2968 36.38C74.5298 35.8345 74.0802 35.093 73.9481 34.1555L76.6263 34.0149C76.7073 34.4112 76.9033 34.7138 77.2144 34.9226C77.5255 35.1271 77.9239 35.2294 78.4097 35.2294C78.887 35.2294 79.2705 35.1378 79.5603 34.9545C79.8543 34.767 80.0035 34.5263 80.0077 34.2322C80.0035 33.9851 79.8991 33.7827 79.6945 33.625C79.49 33.4631 79.1746 33.3395 78.7485 33.2543L77.0482 32.9155C76.0894 32.7237 75.3756 32.3913 74.9069 31.9183C74.4424 31.4453 74.2102 30.8423 74.2102 30.1094C74.2102 29.4787 74.3806 28.9354 74.7215 28.4794C75.0667 28.0234 75.5504 27.6719 76.1725 27.4247C76.7989 27.1776 77.5319 27.054 78.3714 27.054C79.6114 27.054 80.5873 27.3161 81.2989 27.8402C82.0148 28.3643 82.4325 29.0781 82.5518 29.9815ZM95.4087 26.1911V23.9091H106.16V26.1911H102.152V37H99.4165V26.1911H95.4087ZM114.53 37.1918C113.52 37.1918 112.651 36.9872 111.922 36.5781C111.198 36.1648 110.64 35.581 110.248 34.8267C109.856 34.0682 109.659 33.1712 109.659 32.1357C109.659 31.1257 109.856 30.2393 110.248 29.4766C110.64 28.7138 111.191 28.1193 111.903 27.6932C112.619 27.267 113.458 27.054 114.422 27.054C115.069 27.054 115.672 27.1584 116.231 27.3672C116.793 27.5717 117.283 27.8807 117.701 28.294C118.123 28.7074 118.451 29.2273 118.685 29.8537C118.919 30.4759 119.037 31.2045 119.037 32.0398V32.7876H110.746V31.1001H116.473C116.473 30.7081 116.388 30.3608 116.218 30.0582C116.047 29.7557 115.811 29.5192 115.508 29.3487C115.21 29.174 114.863 29.0866 114.466 29.0866C114.053 29.0866 113.686 29.1825 113.367 29.3743C113.052 29.5618 112.804 29.8153 112.625 30.1349C112.446 30.4503 112.355 30.8018 112.351 31.1896V32.794C112.351 33.2798 112.44 33.6996 112.619 34.0533C112.802 34.407 113.06 34.6797 113.392 34.8714C113.725 35.0632 114.119 35.1591 114.575 35.1591C114.878 35.1591 115.155 35.1165 115.406 35.0312C115.657 34.946 115.873 34.8182 116.052 34.6477C116.231 34.4773 116.367 34.2685 116.461 34.0213L118.979 34.1875C118.851 34.7926 118.589 35.321 118.193 35.7727C117.801 36.2202 117.294 36.5696 116.672 36.821C116.054 37.0682 115.34 37.1918 114.53 37.1918ZM128.85 37.1918C127.844 37.1918 126.979 36.9787 126.255 36.5526C125.534 36.1222 124.98 35.5256 124.593 34.7628C124.209 34 124.017 33.1222 124.017 32.1293C124.017 31.1236 124.211 30.2415 124.599 29.483C124.991 28.7202 125.547 28.1257 126.267 27.6996C126.987 27.2692 127.844 27.054 128.837 27.054C129.693 27.054 130.443 27.2095 131.087 27.5206C131.73 27.8317 132.24 28.2685 132.615 28.831C132.99 29.3935 133.196 30.054 133.235 30.8125H130.665C130.593 30.3224 130.401 29.9283 130.09 29.63C129.783 29.3274 129.38 29.1761 128.882 29.1761C128.46 29.1761 128.091 29.2912 127.776 29.5213C127.465 29.7472 127.222 30.0774 127.047 30.5121C126.872 30.9467 126.785 31.473 126.785 32.0909C126.785 32.7173 126.87 33.25 127.041 33.6889C127.215 34.1278 127.46 34.4624 127.776 34.6925C128.091 34.9226 128.46 35.0376 128.882 35.0376C129.193 35.0376 129.472 34.9737 129.719 34.8459C129.97 34.718 130.177 34.5327 130.339 34.2898C130.505 34.0426 130.614 33.7464 130.665 33.4013H133.235C133.192 34.1513 132.987 34.8118 132.621 35.3828C132.259 35.9496 131.758 36.3928 131.119 36.7124C130.48 37.032 129.723 37.1918 128.85 37.1918ZM141.301 31.3239V37H138.578V23.9091H141.224V28.9141H141.339C141.561 28.3345 141.919 27.8807 142.413 27.5526C142.908 27.2202 143.528 27.054 144.273 27.054C144.955 27.054 145.55 27.2031 146.057 27.5014C146.568 27.7955 146.964 28.2195 147.246 28.7734C147.531 29.3232 147.672 29.9815 147.668 30.7486V37H144.945V31.2344C144.949 30.6293 144.795 30.1584 144.484 29.8217C144.177 29.4851 143.747 29.3168 143.193 29.3168C142.822 29.3168 142.494 29.3956 142.209 29.5533C141.927 29.7109 141.706 29.9411 141.544 30.2436C141.386 30.5419 141.305 30.902 141.301 31.3239ZM156.133 31.3239V37H153.41V27.1818H156.006V28.9141H156.121C156.338 28.343 156.702 27.8913 157.214 27.5589C157.725 27.2223 158.345 27.054 159.074 27.054C159.756 27.054 160.35 27.2031 160.857 27.5014C161.364 27.7997 161.758 28.2259 162.04 28.7798C162.321 29.3295 162.462 29.9858 162.462 30.7486V37H159.739V31.2344C159.743 30.6335 159.589 30.1648 159.278 29.8281C158.967 29.4872 158.539 29.3168 157.994 29.3168C157.627 29.3168 157.303 29.3956 157.022 29.5533C156.745 29.7109 156.528 29.9411 156.37 30.2436C156.217 30.5419 156.138 30.902 156.133 31.3239ZM172.644 37.1918C171.651 37.1918 170.792 36.9808 170.068 36.5589C169.348 36.1328 168.792 35.5405 168.4 34.782C168.007 34.0192 167.811 33.1349 167.811 32.1293C167.811 31.1151 168.007 30.2287 168.4 29.4702C168.792 28.7074 169.348 28.1151 170.068 27.6932C170.792 27.267 171.651 27.054 172.644 27.054C173.637 27.054 174.493 27.267 175.213 27.6932C175.938 28.1151 176.496 28.7074 176.888 29.4702C177.28 30.2287 177.476 31.1151 177.476 32.1293C177.476 33.1349 177.28 34.0192 176.888 34.782C176.496 35.5405 175.938 36.1328 175.213 36.5589C174.493 36.9808 173.637 37.1918 172.644 37.1918ZM172.657 35.0824C173.108 35.0824 173.485 34.9545 173.788 34.6989C174.091 34.4389 174.319 34.0852 174.472 33.6378C174.63 33.1903 174.708 32.6811 174.708 32.1101C174.708 31.5391 174.63 31.0298 174.472 30.5824C174.319 30.1349 174.091 29.7812 173.788 29.5213C173.485 29.2614 173.108 29.1314 172.657 29.1314C172.201 29.1314 171.817 29.2614 171.506 29.5213C171.199 29.7812 170.967 30.1349 170.809 30.5824C170.656 31.0298 170.579 31.5391 170.579 32.1101C170.579 32.6811 170.656 33.1903 170.809 33.6378C170.967 34.0852 171.199 34.4389 171.506 34.6989C171.817 34.9545 172.201 35.0824 172.657 35.0824ZM185.57 23.9091V37H182.847V23.9091H185.57ZM195.787 37.1918C194.794 37.1918 193.936 36.9808 193.211 36.5589C192.491 36.1328 191.935 35.5405 191.543 34.782C191.151 34.0192 190.955 33.1349 190.955 32.1293C190.955 31.1151 191.151 30.2287 191.543 29.4702C191.935 28.7074 192.491 28.1151 193.211 27.6932C193.936 27.267 194.794 27.054 195.787 27.054C196.78 27.054 197.637 27.267 198.357 27.6932C199.081 28.1151 199.639 28.7074 200.032 29.4702C200.424 30.2287 200.62 31.1151 200.62 32.1293C200.62 33.1349 200.424 34.0192 200.032 34.782C199.639 35.5405 199.081 36.1328 198.357 36.5589C197.637 36.9808 196.78 37.1918 195.787 37.1918ZM195.8 35.0824C196.252 35.0824 196.629 34.9545 196.931 34.6989C197.234 34.4389 197.462 34.0852 197.615 33.6378C197.773 33.1903 197.852 32.6811 197.852 32.1101C197.852 31.5391 197.773 31.0298 197.615 30.5824C197.462 30.1349 197.234 29.7812 196.931 29.5213C196.629 29.2614 196.252 29.1314 195.8 29.1314C195.344 29.1314 194.96 29.2614 194.649 29.5213C194.343 29.7812 194.11 30.1349 193.953 30.5824C193.799 31.0298 193.723 31.5391 193.723 32.1101C193.723 32.6811 193.799 33.1903 193.953 33.6378C194.11 34.0852 194.343 34.4389 194.649 34.6989C194.96 34.9545 195.344 35.0824 195.8 35.0824ZM210.413 40.8864C209.531 40.8864 208.775 40.7649 208.144 40.522C207.518 40.2834 207.019 39.9574 206.649 39.544C206.278 39.1307 206.037 38.6662 205.926 38.1506L208.445 37.8118C208.521 38.0078 208.643 38.1911 208.809 38.3615C208.975 38.532 209.195 38.6683 209.467 38.7706C209.744 38.8771 210.081 38.9304 210.477 38.9304C211.07 38.9304 211.558 38.7855 211.941 38.4957C212.329 38.2102 212.523 37.7308 212.523 37.0575V35.2614H212.408C212.288 35.5341 212.109 35.7919 211.871 36.0348C211.632 36.2777 211.325 36.4759 210.95 36.6293C210.575 36.7827 210.128 36.8594 209.608 36.8594C208.871 36.8594 208.2 36.6889 207.595 36.348C206.994 36.0028 206.514 35.4766 206.156 34.7692C205.803 34.0575 205.626 33.1584 205.626 32.0717C205.626 30.9595 205.807 30.0305 206.169 29.2848C206.531 28.5391 207.013 27.9808 207.614 27.6101C208.219 27.2393 208.881 27.054 209.602 27.054C210.151 27.054 210.612 27.1477 210.982 27.3352C211.353 27.5185 211.651 27.7486 211.877 28.0256C212.107 28.2983 212.284 28.5668 212.408 28.831H212.51V27.1818H215.214V37.0959C215.214 37.9311 215.009 38.63 214.6 39.1925C214.191 39.755 213.624 40.1768 212.9 40.4581C212.18 40.7436 211.351 40.8864 210.413 40.8864ZM210.471 34.8139C210.91 34.8139 211.281 34.7053 211.583 34.4879C211.89 34.2663 212.124 33.951 212.286 33.5419C212.453 33.1286 212.536 32.6342 212.536 32.0589C212.536 31.4837 212.455 30.9851 212.293 30.5632C212.131 30.1371 211.896 29.8068 211.59 29.5724C211.283 29.3381 210.91 29.2209 210.471 29.2209C210.024 29.2209 209.646 29.3423 209.34 29.5852C209.033 29.8239 208.801 30.1562 208.643 30.5824C208.485 31.0085 208.406 31.5007 208.406 32.0589C208.406 32.6257 208.485 33.1158 208.643 33.5291C208.805 33.9382 209.037 34.2557 209.34 34.4815C209.646 34.7031 210.024 34.8139 210.471 34.8139ZM222.662 40.6818C222.317 40.6818 221.993 40.6541 221.69 40.5987C221.392 40.5476 221.145 40.4815 220.949 40.4006L221.562 38.3679C221.882 38.4659 222.17 38.5192 222.425 38.5277C222.685 38.5362 222.909 38.4766 223.097 38.3487C223.288 38.2209 223.444 38.0036 223.563 37.6967L223.723 37.2812L220.201 27.1818H223.065L225.097 34.392H225.2L227.251 27.1818H230.134L226.318 38.0611C226.135 38.5895 225.886 39.0497 225.57 39.4418C225.259 39.8381 224.865 40.1428 224.388 40.3558C223.91 40.5732 223.335 40.6818 222.662 40.6818Z" fill="white"/>
<g clip-path="url(#clip0_264_114)">
<path d="M28.5871 19.8803L29.0105 16.9506L49.4027 16.5694L48.9794 19.4991L40.4295 19.6589L36.8472 44.0032L33.5547 44.0648L37.137 19.7204L28.5871 19.8803Z" fill="#FFB81C"/>
<path d="M20.2188 43.8868H8.88778L14.9074 7.62761H26.4508C29.9682 7.62761 32.8658 8.36531 35.1438 9.8407C37.4337 11.3161 39.0271 13.423 39.9241 16.1613C40.833 18.8996 40.9687 22.1691 40.3313 25.9697C39.7176 29.6995 38.5254 32.904 36.755 35.5833C34.9963 38.2508 32.7183 40.3046 29.921 41.7446C27.1354 43.1728 23.9014 43.8868 20.2188 43.8868ZM13.9336 39.9918H20.3604C23.3584 39.9918 25.9433 39.4016 28.1151 38.2213C30.2987 37.041 32.0573 35.3591 33.3911 33.1755C34.7366 30.9919 35.6573 28.4011 36.153 25.4031C36.6487 22.5232 36.6015 20.0504 36.0114 17.9849C35.433 15.9075 34.294 14.3141 32.5944 13.2046C30.9065 12.0833 28.6462 11.5226 25.8135 11.5226H18.6431L13.9336 39.9918Z" fill="#FFB81C"/>
</g>
<defs>
<clipPath id="clip0_264_114">
<rect width="54" height="54" fill="white" transform="translate(0.5)"/>
</clipPath>
</defs>
</svg>
