<svg width="60" height="60" viewBox="0 0 60 60" fill="none" xmlns="http://www.w3.org/2000/svg">
<g clip-path="url(#clip0_278_398)">
<path d="M29.9995 24.5454V36.1636H46.1449C45.4359 39.9 43.3084 43.0637 40.1176 45.191L49.8539 52.7456C55.5266 47.5094 58.7994 39.8184 58.7994 30.6821C58.7994 28.5548 58.6085 26.5092 58.2538 24.5457L29.9995 24.5454Z" fill="#4285F4"/>
<path d="M13.1868 35.71L10.9909 37.3909L3.21802 43.4454C8.15437 53.2362 18.2718 59.9999 29.999 59.9999C38.0988 59.9999 44.8896 57.3272 49.8533 52.7455L40.117 45.1909C37.4443 46.9908 34.0352 48.0819 29.999 48.0819C22.199 48.0819 15.5719 42.8183 13.199 35.7273L13.1868 35.71Z" fill="#34A853"/>
<path d="M3.21795 16.5547C1.1726 20.5909 0 25.1455 0 30C0 34.8544 1.1726 39.409 3.21795 43.4452C3.21795 43.4723 13.1999 35.6998 13.1999 35.6998C12.5999 33.8998 12.2453 31.9908 12.2453 29.9996C12.2453 28.0085 12.5999 26.0995 13.1999 24.2995L3.21795 16.5547Z" fill="#FBBC05"/>
<path d="M29.9996 11.9454C34.4178 11.9454 38.3451 13.4727 41.4814 16.4182L50.0722 7.82737C44.8631 2.97291 38.0997 0 29.9996 0C18.2724 0 8.15437 6.73635 3.21802 16.5546L13.1997 24.3C15.5723 17.209 22.1996 11.9454 29.9996 11.9454Z" fill="#EA4335"/>
</g>
<defs>
<clipPath id="clip0_278_398">
<rect width="60" height="60" fill="white"/>
</clipPath>
</defs>
</svg>
