<svg width="40" height="49" viewBox="0 0 40 49" fill="none" xmlns="http://www.w3.org/2000/svg">
<path d="M28.3426 36.4649C29.3418 33.448 31.413 30.8755 33.4634 28.3126C34.0046 27.6411 34.5459 26.9696 35.0663 26.2887C37.1271 23.5933 38.3344 20.3305 38.3344 16.8029C38.3344 7.60087 30.1328 0.148438 20.0161 0.148438C9.89937 0.148438 1.69775 7.60087 1.69775 16.7935C1.69775 20.3211 2.9051 23.5933 4.96591 26.2792C5.48632 26.9602 6.02754 27.6317 6.56877 28.3031C8.62958 30.8661 10.7008 33.448 11.6896 36.4554H28.3426V36.4649ZM20.0161 48.5703C24.6165 48.5703 28.3426 45.1846 28.3426 41.0044V39.4912H11.6896V41.0044C11.6896 45.1846 15.4157 48.5703 20.0161 48.5703ZM11.6896 16.7935C11.6896 17.6257 10.9402 18.3067 10.0243 18.3067C9.10835 18.3067 8.35897 17.6257 8.35897 16.7935C8.35897 10.9393 13.5734 6.20118 20.0161 6.20118C20.932 6.20118 21.6814 6.88211 21.6814 7.71436C21.6814 8.54661 20.932 9.22754 20.0161 9.22754C15.4157 9.22754 11.6896 12.6133 11.6896 16.7935Z" fill="#FFB81C"/>
</svg>
