<svg width="63" height="64" viewBox="0 0 63 64" fill="none" xmlns="http://www.w3.org/2000/svg">
<path d="M50.4828 28.8047L51.8635 27.4239L47.7214 23.2818L40.1335 15.6939L35.9914 11.5518L34.6106 12.9325L31.8492 15.6939L7.50945 40.0337C6.2387 41.3044 5.31008 42.8807 4.79689 44.6035L0.471451 59.3149C0.165982 60.3413 0.447013 61.4532 1.21679 62.2107C1.98658 62.9683 3.08626 63.2493 4.11264 62.9561L18.8118 58.6306C20.5346 58.1174 22.1109 57.1888 23.3816 55.9181L47.7214 31.5783L50.4828 28.8047ZM19.8993 49.381L18.7874 52.1547C18.2986 52.5335 17.7488 52.8145 17.1623 52.9978L7.6072 55.8081L10.4175 46.2653C10.5886 45.6665 10.8818 45.1167 11.2606 44.6402L14.0343 43.5283V47.4383C14.0343 48.5135 14.914 49.3933 15.9893 49.3933H19.8993V49.381ZM44.6667 2.86426L42.9072 4.63598L40.1457 7.39741L38.7528 8.77813L42.895 12.9203L50.4828 20.5081L54.625 24.6503L56.0057 23.2696L58.7671 20.5081L60.5388 18.7364C63.5935 15.6817 63.5935 10.7331 60.5388 7.67845L55.7369 2.86426C52.6822 -0.19043 47.7336 -0.19043 44.6789 2.86426H44.6667ZM38.875 23.3918L21.28 40.9868C20.5224 41.7443 19.2761 41.7443 18.5185 40.9868C17.761 40.2292 17.761 38.9829 18.5185 38.2253L36.1135 20.6303C36.8711 19.8728 38.1174 19.8728 38.875 20.6303C39.6325 21.3879 39.6325 22.6342 38.875 23.3918Z" fill="#FFB81C"/>
</svg>
